<?xml version="1.0" standalone="no"?>
<!DOCTYPE svg PUBLIC "-//W3C//DTD SVG 20010904//EN"
 "http://www.w3.org/TR/2001/REC-SVG-20010904/DTD/svg10.dtd">
<svg version="1.0" xmlns="http://www.w3.org/2000/svg"
 width="520.000000pt" height="520.000000pt" viewBox="0 0 520.000000 520.000000"
 preserveAspectRatio="xMidYMid meet">
<metadata>
Created by potrace 1.11, written by Peter Selinger 2001-2013
</metadata>
<g transform="translate(0.000000,520.000000) scale(0.100000,-0.100000)"
fill="#000000" stroke="none">
<path d="M805 4570 c-145 -4 -176 -8 -200 -24 -52 -33 -86 -70 -112 -120 l-25
-50 -2 -1335 c-2 -1227 1 -1469 19 -1542 6 -22 0 -30 -46 -65 -85 -63 -347
-400 -370 -476 -20 -62 22 -128 117 -184 l42 -25 2098 0 c1155 0 2232 1 2395
1 l296 0 62 40 c106 69 125 149 57 248 -84 124 -310 387 -365 424 -23 16 -23
18 -10 70 11 43 14 309 14 1443 l0 1390 -26 55 c-28 60 -79 110 -137 137 -34
16 -168 17 -1837 17 -990 1 -1877 -1 -1970 -4z m3723 -1607 l2 -1373 -1910 0
-1910 0 0 1368 c0 753 3 1372 7 1375 3 4 862 6 1907 5 l1901 -3 3 -1372z m47
-1623 c46 -14 52 -20 82 -75 39 -74 51 -124 32 -136 -8 -5 -315 -9 -682 -9
-632 0 -668 -1 -663 -17 3 -10 8 -37 11 -60 5 -35 3 -44 -14 -52 -13 -7 -248
-10 -723 -8 l-703 2 -3 68 -3 67 -649 1 c-358 1 -654 3 -660 4 -5 1 -21 3 -35
4 -38 2 -42 28 -12 85 44 83 87 127 132 136 22 4 895 7 1940 6 1633 -2 1907
-4 1950 -16z"/>
<path d="M2898 3758 c-31 -11 -79 -83 -132 -199 -18 -41 -53 -114 -76 -164
-23 -49 -71 -151 -105 -225 -35 -74 -89 -189 -120 -255 -279 -586 -300 -644
-266 -709 29 -53 124 -64 173 -19 17 15 139 254 218 428 13 28 43 93 67 145
25 52 60 127 78 165 18 39 92 195 164 348 170 361 176 379 146 436 -22 43 -96
68 -147 49z"/>
<path d="M1785 3544 c-41 -21 -67 -42 -336 -261 -130 -105 -248 -206 -262
-223 -32 -37 -44 -108 -27 -150 15 -36 107 -123 276 -260 71 -57 134 -109 140
-115 66 -60 199 -154 227 -161 71 -15 163 31 185 95 17 48 8 106 -21 145 -15
19 -82 81 -150 136 -67 56 -148 124 -179 152 -54 46 -70 72 -49 80 4 2 35 26
67 54 32 29 100 86 150 128 113 93 184 164 185 185 10 107 -13 153 -96 192
-49 23 -71 23 -110 3z"/>
<path d="M3353 3548 c-70 -18 -122 -107 -107 -184 8 -45 43 -81 229 -236 83
-69 161 -135 174 -146 l23 -22 -33 -29 c-19 -16 -105 -88 -191 -160 -173 -145
-195 -168 -204 -215 -20 -108 79 -203 190 -182 30 6 122 68 196 132 14 12 84
70 155 130 236 196 284 242 296 287 14 52 5 99 -27 136 -32 39 -537 451 -577
473 -42 21 -84 27 -124 16z"/>
</g>
</svg>
